<svg xmlns="http://www.w3.org/2000/svg" width="25cm" height="18cm" viewBox="0 0 944.882 680.315"><path d="M209.669 508.1c4.3 0 7.849 1.506 10.86 4.516 3.01 3.01 4.515 6.666 4.515 10.86v53.33h-54.513c-4.3 0-7.848-1.506-10.859-4.516-3.01-3.01-4.516-6.666-4.516-10.86v-25.374h57.093v-12.58c0-.753-.215-1.29-.752-1.828-.538-.538-1.076-.753-1.828-.753h-54.513V508.1zm2.58 55.91v-15.16h-44.298v12.58c0 .753.215 1.29.753 1.828.537.538 1.075.753 1.827.753zm123.326-55.91h13.655l-25.805 68.706h-10.43l-23.116-51.072-21.827 51.072-.215-.108.108.108h-10.322L230.635 508.1h13.548l18.6 45.589 19.784-45.589h14.623l20.967 45.589zm72.253 0c4.301 0 7.85 1.506 10.86 4.516s4.516 6.666 4.516 10.86v25.374H366.11v12.58c0 .753.215 1.29.752 1.828.538.538 1.075.753 1.828.753h54.513v12.795H368.69c-4.3 0-7.849-1.506-10.86-4.516-3.01-3.01-4.515-6.666-4.515-10.86v-37.954c0-4.301 1.505-7.85 4.515-10.86 3.011-3.01 6.667-4.516 10.86-4.516zm-41.717 27.956h44.298v-12.58c0-.753-.215-1.29-.753-1.828-.537-.538-1.075-.753-1.828-.753h-39.137c-.753 0-1.29.215-1.828.753-.537.537-.752 1.075-.752 1.828zm138.7-12.473v2.58h-12.794v-2.58c0-.752-.215-1.29-.753-1.828-.538-.537-1.075-.752-1.828-.752H450.3c-.753 0-1.29.215-1.828.752-.538.538-.753 1.076-.753 1.828v10c0 .752.215 1.29.753 1.827.538.538 1.075.753 1.828.753h39.137c4.3 0 7.85 1.505 10.86 4.516 3.01 3.01 4.515 6.666 4.515 10.86v9.999c0 4.3-1.505 7.849-4.515 10.86-3.01 3.01-6.667 4.515-10.86 4.515H450.3c-4.301 0-7.85-1.505-10.86-4.516-3.01-3.01-4.516-6.666-4.516-10.86v-2.58h12.795v2.58c0 .753.215 1.291.753 1.829.538.537 1.075.752 1.828.752h39.137c.753 0 1.29-.215 1.828-.752.538-.538.753-1.076.753-1.828v-10c0-.752-.215-1.29-.753-1.827-.538-.538-1.075-.753-1.828-.753H450.3c-4.301 0-7.85-1.505-10.86-4.516-3.01-3.01-4.516-6.666-4.516-10.86v-9.999c0-4.3 1.506-7.849 4.516-10.86 3.01-3.01 6.666-4.515 10.86-4.515h39.137c4.3 0 7.85 1.505 10.86 4.516 3.01 2.903 4.515 6.558 4.515 10.86zm27.095-15.483h39.138c4.3 0 7.849 1.506 10.86 4.516 3.01 3.01 4.515 6.666 4.515 10.86v37.954c0 4.301-1.505 7.85-4.516 10.86-3.01 3.01-6.666 4.516-10.86 4.516h-39.137c-4.3 0-7.848-1.506-10.859-4.516-3.01-3.01-4.516-6.666-4.516-10.86v-37.954c0-4.301 1.505-7.85 4.516-10.86 3.01-3.01 6.666-4.516 10.86-4.516zm39.138 12.795h-39.138c-.752 0-1.29.215-1.827.753-.538.537-.753 1.075-.753 1.828v37.954c0 .753.215 1.29.753 1.828.537.538 1.075.753 1.827.753h39.138c.752 0 1.29-.215 1.828-.753.537-.537.752-1.075.752-1.828v-37.954c0-.753-.215-1.29-.752-1.828-.538-.43-1.076-.753-1.828-.753zM686.628 508.1c4.3 0 7.849 1.506 10.86 4.516 3.01 3.01 4.515 6.666 4.515 10.86v53.33h-12.687v-53.33c0-.753-.215-1.29-.753-1.828-.537-.538-1.182-.753-1.935-.753h-27.095c-.753 0-1.29.215-1.828.753-.538.537-.753 1.075-.753 1.828v53.33h-12.795v-53.33c0-.753-.215-1.29-.752-1.828-.538-.538-1.075-.753-1.828-.753h-27.203c-.752 0-1.29.215-1.827.753-.538.537-.753 1.075-.753 1.828v53.33h-12.795V508.1zm82.253 0c4.3 0 7.849 1.506 10.86 4.516 3.01 3.01 4.515 6.666 4.515 10.86v25.374h-57.093v12.58c0 .753.215 1.29.753 1.828.537.538 1.075.753 1.827.753h54.513v12.795h-54.513c-4.3 0-7.849-1.506-10.859-4.516s-4.516-6.666-4.516-10.86v-37.954c0-4.301 1.505-7.85 4.516-10.86 3.01-3.01 6.666-4.516 10.86-4.516zm-41.718 27.956h44.298v-12.58c0-.753-.215-1.29-.752-1.828-.538-.538-1.076-.753-1.828-.753h-39.138c-.752 0-1.29.215-1.827.753-.538.537-.753 1.075-.753 1.828z" fill="#292a3c"/><path d="M361.27 168.472c-9.056 35.897-91.01 213.658-93.657 241.499-2.092 22.001 20.05 43.46 24.552 29.479 13.515-41.955 65.154-127.383 82.186-142.098-3.69 8.818-18.489 57.323-19.244 68.741-1.142 17.285 20.832 27.22 25.426 13.552 15.596-46.399 63.819-102.265 63.819-102.265s-14.036 52.589-14.333 60.316c-.687 17.906 14.766 31.431 24.45 21.992 9.341-9.105 34.01-47.55 45.038-60.856 31.69-38.237 57.483-43.635 67.42-41.76 1.153 4.38-9.462 20.57-14.76 24.862-19.287 11.139-38.677 32.462-41.801 43.126-3.408 11.631 11.712 25.525 19.967 21.472 23.684-11.627 49.097-57.677 50.195-58.591 11.644-9.712 39.306-18.73 39.306-18.73-27.319 20.626-37.454 64.968-6.037 65.386 7.178.096 24.839-7.191 24.839-7.191.346.345-7.3 16.621-8.636 21.585-2.378 8.835 18.29 23.466 19.24 14.102.432-4.253 26.367-67.01 45.228-96.228 11.588-17.947 17.16-37.916 13.433-49.917-2.946-9.482-16.973-22.499-36.598-22.54-18.239-.036-56.977 10.889-64.528 24.658-5.929 10.81 5.453 24.701 10.628 20.79 9.62-7.273 35.68-21.502 54.26-21.83 14.426-.254 13.78 8.5 13.78 8.5-32.29 2.796-94.218 33.48-94.218 33.48 7.157-27.183-31.54-35.526-55.914-19.512 8.572-12.192 43.721-72.217 47.883-87.976 3.885-14.708-18.856-29.238-23.134-18.227-10.287 26.477-104.856 185.073-104.856 185.073 0-1.835 30.411-72.06 30.088-77.022-.338-5.158-18.583-15.314-21.535-13.78-10.025 5.213-55.854 53.238-55.854 53.238 5.87-15.811 25.235-56.902 27.17-59.893 5.114-7.905-19.2-21.901-23.6-18.273-8.832 7.28-60.398 84.837-71.859 100.044-.054.07 48.595-105.12 49.345-116.898.678-10.66-24.011-32.88-27.689-18.308zm223.635 182.905c16.836-1.487 29.696 17.632 19.642 20.387-9.677 2.652-63.226 10.287-119.051 24.045-67.902 16.733-139.464 39.91-143.265 41.095-19.591 6.104-10.249-21.714 1.677-25.837 95.402-32.974 226.282-58.39 240.997-59.69zM291.297 194.82c-5.27 24.258-56.691 138.87-63.273 164.834-4.676 18.45 19.649 41.565 23.682 26.398 1.567-5.89 3.851-12.85 6.644-20.548 18.342-50.56 58.59-132.89 61.137-152.03 2.53-19.007-25.616-30.506-28.19-18.654zm412.247 91.984a16.65 16.65 0 0117.782-7.959c17.263 3.559 38.933 5.292 67.157 3.933 19.39-.934-9.209 31.308-35.924 28.816-18.863-1.761-35.445-7.188-45.59-12.654a8.822 8.822 0 01-3.433-12.065c-.025-.015-.025-.015.01-.071zm-476.863-7.836a8.667 8.667 0 0110.004 12.036c.041.023.038.025.037.028a33.2 33.2 0 01-23.804 18.655c-5.927 1.136-12.618 2.083-20.056 2.801-26.708 2.579-55.41-29.572-36.015-28.7 28.868 1.298 51.877-.862 69.833-4.82zm394.76 29.877c12.85-.708 49.37-40.381 51.126-52.926 0 0-48.005 30.307-51.127 52.926zm-366.458-60.174a23.296 23.296 0 01-16.853 14.243c-35.274 7.455-86.008 4.656-111.028-1.37-24.32-5.856-40.355-41.207-24.562-35.957C139.218 237.78 207.412 241.721 246 237.283a8.39 8.39 0 018.971 11.363c.02.008.02.008.012.026zm466.863 1.507a16.383 16.383 0 0116.365-11.357c35.85 1.379 77.984-5.544 104.391-14.417 15.777-5.3-1.96 30.105-26.261 36.039-20.122 4.914-58.18 7.122-86.219 3.128a10.365 10.365 0 01-8.29-13.375c.01.002.01.002.014-.019zm-452.282-43.037a19.861 19.861 0 01-17.37 14.045c-70.857 5.211-161.915-11.017-188.25-38.1-19.793-20.353-18.59-59.556-7.334-47.115 42.658 47.144 147.354 60.568 204.35 59.876a8.762 8.762 0 018.6 11.289c.01 0 .01 0 0 .006zm456.164 4.746a13.95 13.95 0 0112.248-18.213c57.884-4.658 121.632-27.18 150.27-59.033 11.216-12.477 12.544 26.723-7.183 47.139-21.096 21.833-81.858 36.787-142.305 39.219a13.185 13.185 0 01-13.027-9.11v-.001z" clip-rule="evenodd" fill="#ffdc00" fill-rule="evenodd"/><path d="M172.462 427.353l120.102-23.306-3.574-18.417-100.052 19.446 176.09-238.086 10.751 101.397 18.656-1.976-12.931-121.698.036-.048-43.829-32.416c-19.812-14.653-50.07-7.503-67.403 15.934l-33.06 44.698c-17.333 23.437-15.31 54.461 4.502 69.115l28.8 21.3-17.155 23.195-28.8-21.3c-19.813-14.654-50.07-7.503-67.404 15.933l-33.059 44.699c-17.334 23.436-15.311 54.46 4.501 69.114z" fill="#fc60a8"/><path d="M366.176 265.504l31.82-45.078 7.247 38.36-7.601 17.678-30.583-3.535zM372.893 229.088s14.183-31.836 15.954-41.852c.505-2.885-1.425-6.28-1.547-6.938-7.797-12.249-15.55-14.861-20.383-16.305-2.537 3.634-2.113 2.976-2.678 4.304-1.872 4.402.876 13.061.876 13.061l6.452 51zM275.319 383.724l-7.607 25.319 29.675-1.624 24.97-46.406-19.597-14.381z" fill="#ffdc00"/></svg>