<?xml version="1.0" encoding="UTF-8" standalone="no"?>
<!-- Created with Inkscape (http://www.inkscape.org/) -->

<svg
   xmlns:dc="http://purl.org/dc/elements/1.1/"
   xmlns:cc="http://creativecommons.org/ns#"
   xmlns:rdf="http://www.w3.org/1999/02/22-rdf-syntax-ns#"
   xmlns:svg="http://www.w3.org/2000/svg"
   xmlns="http://www.w3.org/2000/svg"
   xmlns:sodipodi="http://sodipodi.sourceforge.net/DTD/sodipodi-0.dtd"
   xmlns:inkscape="http://www.inkscape.org/namespaces/inkscape"
   width="25cm"
   height="18cm"
   viewBox="0 0 944.8819 680.31494"
   version="1.1"
   id="SVGRoot"
   inkscape:version="0.92.1 r15371"
   sodipodi:docname="imba-awesome-logo.svg"
   inkscape:export-filename="E:\Important File\GS STS 23-12-2018 vs.2.png"
   inkscape:export-xdpi="300"
   inkscape:export-ydpi="300">
  <sodipodi:namedview
     id="base"
     pagecolor="#ffffff"
     bordercolor="#666666"
     borderopacity="1.0"
     inkscape:pageopacity="0.0"
     inkscape:pageshadow="2"
     inkscape:zoom="0.5"
     inkscape:cx="432.85105"
     inkscape:cy="392.00814"
     inkscape:document-units="px"
     inkscape:current-layer="g4584"
     showgrid="false"
     inkscape:window-width="1366"
     inkscape:window-height="715"
     inkscape:window-x="-8"
     inkscape:window-y="22"
     inkscape:window-maximized="1"
     showborder="true"
     inkscape:showpageshadow="false"
     borderlayer="true"
     showguides="false"
     units="cm"
     inkscape:snap-global="false" />
  <defs
     id="defs4485">
    <clipPath
       clipPathUnits="userSpaceOnUse"
       id="clipPath5065">
      <rect
         style="opacity:1;vector-effect:none;fill:#ffffff;fill-opacity:1;stroke:none;stroke-width:2.87622046;stroke-linecap:round;stroke-linejoin:round;stroke-miterlimit:4;stroke-dasharray:none;stroke-dashoffset:0;stroke-opacity:1;paint-order:markers stroke fill"
         id="rect5067"
         width="410.98868"
         height="588.46106"
         x="754.50568"
         y="123.48376"
         ry="106" />
    </clipPath>
    <clipPath
       clipPathUnits="userSpaceOnUse"
       id="clipPath5114">
      <rect
         ry="0"
         y="-0.4591608"
         x="0"
         height="543.05798"
         width="1928.9873"
         id="rect5116"
         style="opacity:1;vector-effect:none;fill:#ff0000;fill-opacity:1;stroke:none;stroke-width:2.62220597;stroke-linecap:round;stroke-linejoin:round;stroke-miterlimit:4;stroke-dasharray:none;stroke-dashoffset:0;stroke-opacity:1;paint-order:markers stroke fill" />
    </clipPath>
    <clipPath
       clipPathUnits="userSpaceOnUse"
       id="clipPath5198">
      <rect
         ry="0"
         y="996.5614"
         x="981.12781"
         height="64.505508"
         width="93.005508"
         id="rect5200"
         style="opacity:1;vector-effect:none;fill:#008080;fill-opacity:1;stroke:#000000;stroke-width:3.42453861;stroke-linecap:round;stroke-linejoin:round;stroke-miterlimit:4;stroke-dasharray:none;stroke-dashoffset:0;stroke-opacity:1;paint-order:markers stroke fill"
         transform="rotate(-45)" />
    </clipPath>
  </defs>
  <metadata
     id="metadata4488">
    <rdf:RDF>
      <cc:Work
         rdf:about="">
        <dc:format>image/svg+xml</dc:format>
        <dc:type
           rdf:resource="http://purl.org/dc/dcmitype/StillImage" />
        <dc:title></dc:title>
      </cc:Work>
    </rdf:RDF>
  </metadata>
  <g
     id="layer1"
     inkscape:groupmode="layer"
     inkscape:label="Layer 1"
     transform="translate(0,-399.6851)">
    <g
       id="g4532"
       transform="translate(1862.2825,804.67439)" />
    <g
       id="g4564"
       transform="translate(-1346.3313,8.4852818)">
      <g
         id="g4584"
         transform="translate(68.71227,21.932204)">
        <g
           style="clip-rule:evenodd;fill:#292a3c;fill-opacity:1;fill-rule:evenodd;stroke-linejoin:round;stroke-miterlimit:1.41420996"
           id="g4545"
           transform="translate(1374.103,519.70202)" />
        <g
           id="g4709"
           transform="translate(-2.7347847)">
          <path
             style="fill:#292a3c;fill-opacity:1;stroke-width:1.0752008"
             inkscape:connector-curvature="0"
             d="m 1490.0226,877.36796 c 4.3008,0 7.849,1.50529 10.8596,4.51585 3.0105,3.01056 4.5158,6.66624 4.5158,10.85953 v 53.32996 h -54.5127 c -4.3008,0 -7.8489,-1.50528 -10.8595,-4.51585 -3.0106,-3.01056 -4.5158,-6.66624 -4.5158,-10.85953 v -25.37473 h 57.0931 v -12.57985 c 0,-0.75264 -0.215,-1.29025 -0.7526,-1.82785 -0.5376,-0.5376 -1.0752,-0.75264 -1.8279,-0.75264 H 1435.51 v -12.79489 z m 2.5805,55.91045 v -15.16033 h -44.2982 v 12.57984 c 0,0.75265 0.215,1.29025 0.7526,1.82785 0.5376,0.5376 1.0752,0.75264 1.8278,0.75264 z m 123.3256,-55.91045 h 13.655 l -25.8048,68.70534 h -10.4295 l -23.1168,-51.07204 -21.8265,51.07204 -0.2151,-0.10752 0.1075,0.10752 h -10.3219 l -26.9875,-68.70534 h 13.5475 l 18.601,45.58852 19.7837,-45.58852 h 14.6227 l 20.9664,45.58852 z m 72.2535,0 c 4.3008,0 7.8489,1.50529 10.8595,4.51585 3.0106,3.01056 4.5158,6.66624 4.5158,10.85953 v 25.37474 h -57.0931 v 12.57984 c 0,0.75265 0.215,1.29025 0.7526,1.82785 0.5376,0.5376 1.0752,0.75264 1.8278,0.75264 h 54.5127 v 12.79489 h -54.5127 c -4.3008,0 -7.8489,-1.50528 -10.8595,-4.51585 -3.0105,-3.01056 -4.5158,-6.66624 -4.5158,-10.85953 v -37.95458 c 0,-4.30081 1.5053,-7.84897 4.5158,-10.85953 3.0106,-3.01056 6.6663,-4.51585 10.8595,-4.51585 z m -41.7178,27.95523 h 44.2982 v -12.57985 c 0,-0.75264 -0.215,-1.29025 -0.7526,-1.82785 -0.5376,-0.5376 -1.0752,-0.75264 -1.8278,-0.75264 h -39.1374 c -0.7526,0 -1.2902,0.21504 -1.8278,0.75264 -0.5376,0.5376 -0.7526,1.07521 -0.7526,1.82785 z m 138.7009,-12.47233 v 2.58048 h -12.7949 v -2.58048 c 0,-0.75264 -0.215,-1.29024 -0.7526,-1.82785 -0.5377,-0.5376 -1.0753,-0.75264 -1.8279,-0.75264 h -39.1373 c -0.7526,0 -1.2902,0.21504 -1.8278,0.75264 -0.5376,0.53761 -0.7527,1.07521 -0.7527,1.82785 v 9.99936 c 0,0.75264 0.2151,1.29024 0.7527,1.82785 0.5376,0.5376 1.0752,0.75264 1.8278,0.75264 h 39.1373 c 4.3008,0 7.849,1.50528 10.8595,4.51584 3.0106,3.01056 4.5159,6.66624 4.5159,10.85953 v 9.99937 c 0,4.3008 -1.5053,7.84896 -4.5159,10.85952 -3.0105,3.01057 -6.6662,4.51585 -10.8595,4.51585 h -39.1373 c -4.3008,0 -7.849,-1.50528 -10.8595,-4.51585 -3.0106,-3.01056 -4.5159,-6.66624 -4.5159,-10.85952 v -2.58049 h 12.7949 v 2.58049 c 0,0.75264 0.2151,1.29024 0.7527,1.82784 0.5376,0.5376 1.0752,0.75264 1.8278,0.75264 h 39.1373 c 0.7526,0 1.2902,-0.21504 1.8279,-0.75264 0.5376,-0.5376 0.7526,-1.0752 0.7526,-1.82784 v -9.99937 c 0,-0.75264 -0.215,-1.29024 -0.7526,-1.82784 -0.5377,-0.5376 -1.0753,-0.75264 -1.8279,-0.75264 h -39.1373 c -4.3008,0 -7.849,-1.50529 -10.8595,-4.51585 -3.0106,-3.01056 -4.5159,-6.66624 -4.5159,-10.85953 v -9.99936 c 0,-4.30081 1.5053,-7.84897 4.5159,-10.85953 3.0105,-3.01056 6.6662,-4.51585 10.8595,-4.51585 h 39.1373 c 4.3008,0 7.849,1.50529 10.8595,4.51585 3.0106,2.90304 4.5159,6.55872 4.5159,10.85953 z m 27.095,-15.4829 h 39.1374 c 4.3008,0 7.8489,1.50529 10.8595,4.51585 3.0105,3.01056 4.5158,6.66624 4.5158,10.85953 v 37.95458 c 0,4.30081 -1.5053,7.84897 -4.5158,10.85953 -3.0106,3.01057 -6.6663,4.51585 -10.8595,4.51585 h -39.1374 c -4.3008,0 -7.8489,-1.50528 -10.8595,-4.51585 -3.0105,-3.01056 -4.5158,-6.66624 -4.5158,-10.85953 v -37.95458 c 0,-4.30081 1.5053,-7.84897 4.5158,-10.85953 3.0106,-3.01056 6.6663,-4.51585 10.8595,-4.51585 z m 39.1374,12.79489 h -39.1374 c -0.7526,0 -1.2902,0.21504 -1.8278,0.75264 -0.5376,0.5376 -0.7526,1.07521 -0.7526,1.82785 v 37.95458 c 0,0.75265 0.215,1.29025 0.7526,1.82785 0.5376,0.5376 1.0752,0.75264 1.8278,0.75264 h 39.1374 c 0.7526,0 1.2902,-0.21504 1.8278,-0.75264 0.5376,-0.5376 0.7526,-1.0752 0.7526,-1.82785 v -37.95458 c 0,-0.75264 -0.215,-1.29025 -0.7526,-1.82785 -0.5376,-0.43008 -1.0752,-0.75264 -1.8278,-0.75264 z m 115.584,-12.79489 c 4.3008,0 7.849,1.50529 10.8596,4.51585 3.0105,3.01056 4.5158,6.66624 4.5158,10.85953 v 53.32996 h -12.6874 v -53.32996 c 0,-0.75264 -0.215,-1.29025 -0.7526,-1.82785 -0.5376,-0.5376 -1.1827,-0.75264 -1.9354,-0.75264 h -27.095 c -0.7527,0 -1.2903,0.21504 -1.8279,0.75264 -0.5376,0.5376 -0.7526,1.07521 -0.7526,1.82785 v 53.32996 h -12.7949 v -53.32996 c 0,-0.75264 -0.215,-1.29025 -0.7526,-1.82785 -0.5376,-0.5376 -1.0752,-0.75264 -1.8279,-0.75264 h -27.2026 c -0.7526,0 -1.2902,0.21504 -1.8278,0.75264 -0.5376,0.5376 -0.7526,1.07521 -0.7526,1.82785 v 53.32996 h -12.7949 v -68.70534 z m 82.2529,0 c 4.3008,0 7.849,1.50529 10.8595,4.51585 3.0106,3.01056 4.5159,6.66624 4.5159,10.85953 v 25.37474 h -57.0932 v 12.57984 c 0,0.75265 0.215,1.29025 0.7526,1.82785 0.5376,0.5376 1.0752,0.75264 1.8279,0.75264 h 54.5127 v 12.79489 h -54.5127 c -4.3008,0 -7.849,-1.50528 -10.8595,-4.51585 -3.0106,-3.01056 -4.5159,-6.66624 -4.5159,-10.85953 v -37.95458 c 0,-4.30081 1.5053,-7.84897 4.5159,-10.85953 3.0105,-3.01056 6.6662,-4.51585 10.8595,-4.51585 z m -41.7178,27.95523 h 44.2983 v -12.57985 c 0,-0.75264 -0.2151,-1.29025 -0.7527,-1.82785 -0.5376,-0.5376 -1.0752,-0.75264 -1.8278,-0.75264 h -39.1373 c -0.7527,0 -1.2903,0.21504 -1.8279,0.75264 -0.5376,0.5376 -0.7526,1.07521 -0.7526,1.82785 z"
             id="path4518" />
          <path
             sodipodi:nodetypes="ccccccccccccccccccccccccccccccccccccccccsccccsccccccccccccccccccccccccccccccccccccccccccccccscccccccccc"
             inkscape:connector-curvature="0"
             d="m 1641.6243,537.73961 c -9.0562,35.89655 -91.0097,213.65811 -93.657,241.49895 -2.0923,22.00152 20.0491,43.45937 24.5518,29.47861 13.5149,-41.95471 65.1541,-127.38231 82.1859,-142.09736 -3.6906,8.8182 -18.4891,57.32283 -19.2437,68.74092 -1.1426,17.28449 20.8318,27.22048 25.4259,13.55215 15.596,-46.39877 63.8186,-102.26543 63.8186,-102.26543 0,0 -14.036,52.58888 -14.3327,60.31637 -0.6869,17.90598 14.7658,31.43106 24.4503,21.99136 9.3404,-9.10469 34.0095,-47.54926 45.0374,-60.85552 31.6893,-38.23702 57.483,-43.63532 67.4201,-41.75957 1.1527,4.37978 -9.4623,20.57017 -14.7602,24.86196 -19.2866,11.13837 -38.6769,32.462 -41.8013,43.1255 -3.4075,11.63128 11.7125,25.52519 19.9678,21.47252 23.6833,-11.62789 49.0968,-57.677 50.1943,-58.59176 11.6448,-9.71152 39.3063,-18.72937 39.3063,-18.72937 -27.3186,20.62543 -37.4542,64.96797 -6.0367,65.38531 7.1782,0.0959 24.8383,-7.19059 24.8383,-7.19059 0.3463,0.34515 -7.2989,16.62126 -8.6355,21.58531 -2.3777,8.83512 18.2895,23.46557 19.2403,14.10145 0.432,-4.25232 26.3667,-67.00954 45.228,-96.22759 11.5873,-17.94771 17.1593,-37.91669 13.4326,-49.9168 -2.9462,-9.48256 -16.9732,-22.49893 -36.5981,-22.53954 -18.2388,-0.0372 -56.9766,10.88796 -64.5281,24.65668 -5.9284,10.81013 5.4536,24.70179 10.6285,20.79011 9.6202,-7.27293 35.6789,-21.50184 54.2605,-21.83007 14.4252,-0.25379 13.78,8.50125 13.78,8.50125 -32.2906,2.79503 -94.2187,33.47939 -94.2187,33.47939 7.1567,-27.18325 -31.5405,-35.52659 -55.9141,-19.51216 8.5723,-12.19186 43.7211,-72.21722 47.8832,-87.97561 3.8846,-14.70828 -18.8557,-29.23835 -23.134,-18.22744 -10.2868,26.47716 -104.8563,185.07284 -104.8563,185.07284 0,-1.83515 30.4114,-72.05931 30.0877,-77.02223 -0.3373,-5.15805 -18.5828,-15.31398 -21.5346,-13.77886 -10.0251,5.21219 -55.8542,53.23744 -55.8542,53.23744 5.8709,-15.8114 25.2353,-56.90211 27.1697,-59.89339 5.1141,-7.90458 -19.1986,-21.90113 -23.5998,-18.27256 -8.8317,7.27969 -60.3976,84.83656 -71.8585,100.04339 -0.054,0.0711 48.5948,-105.12023 49.3449,-116.89814 0.6779,-10.65899 -24.0115,-32.88046 -27.6886,-18.30752 z m 223.6347,182.90494 c 16.8356,-1.48662 29.6963,17.63189 19.6419,20.38744 -9.6766,2.65178 -63.2264,10.28678 -119.0514,24.04421 -67.9017,16.73293 -139.4636,39.91088 -143.2647,41.09521 -19.5912,6.10439 -10.2485,-21.71389 1.6772,-25.83649 95.4019,-32.97408 226.282,-58.39099 240.997,-59.69037 z M 1571.6506,564.08819 c -5.2697,24.25851 -56.6912,138.87033 -63.2727,164.83428 -4.6764,18.44965 19.6486,41.56557 23.6821,26.39821 1.5666,-5.88971 3.8513,-12.85082 6.6438,-20.54827 18.3419,-50.56043 58.5902,-132.88989 61.1373,-152.03042 2.5288,-19.00685 -25.6166,-30.50502 -28.1905,-18.6538 z m 412.247,91.98429 c 3.5947,-6.2059 10.7594,-9.41262 17.7819,-7.95871 17.263,3.55863 38.9329,5.29227 67.1573,3.93311 19.3903,-0.93393 -9.2085,31.30811 -35.9237,28.81538 -18.8635,-1.76071 -35.4453,-7.18721 -45.59,-12.65319 -2.0652,-1.1347 -3.5902,-3.04994 -4.2354,-5.31596 -0.6452,-2.26715 -0.3564,-4.69785 0.802,-6.74957 -0.025,-0.0147 -0.025,-0.0147 0.01,-0.0711 z m -476.8631,-7.83577 c 3.2406,-0.82565 6.6661,0.28763 8.8035,2.85819 2.1375,2.57169 2.6056,6.14274 1.2013,9.17801 0.041,0.0226 0.038,0.0248 0.037,0.0282 -4.4768,9.68108 -13.3333,16.62127 -23.804,18.65493 -5.9273,1.13584 -12.6182,2.08217 -20.0569,2.80067 -26.7073,2.57846 -55.4087,-29.57222 -36.015,-28.70033 28.8684,1.29826 51.8772,-0.86174 69.8339,-4.81967 z m 394.7595,29.87677 c 12.8506,-0.70835 49.3709,-40.38123 51.1271,-52.92614 0,0 -48.005,30.30764 -51.1271,52.92614 z m -366.4573,-60.17425 c -2.8706,7.27631 -9.2006,12.62611 -16.8525,14.24357 -35.274,7.45453 -86.0085,4.65612 -111.0284,-1.36931 -24.3205,-5.85737 -40.3553,-41.20801 -24.5619,-35.95747 36.6782,12.19186 104.8721,16.13287 143.4588,11.69444 2.9495,-0.41057 5.8968,0.77263 7.7421,3.11085 1.8453,2.33708 2.3134,5.47838 1.2295,8.25197 0.02,0.008 0.02,0.008 0.012,0.026 z m 466.8628,1.50692 c 2.2637,-7.04847 8.9716,-11.70233 16.3652,-11.35606 35.8503,1.37834 77.9843,-5.54493 104.3916,-14.41727 15.7764,-5.30017 -1.9604,30.1046 -26.2618,36.03867 -20.1212,4.91442 -58.1789,7.12179 -86.2182,3.12777 -2.9891,-0.46358 -5.6262,-2.21075 -7.22,-4.78132 -1.5937,-2.57169 -1.9851,-5.70961 -1.0704,-8.59374 0.01,0.002 0.01,0.002 0.014,-0.0181 z m -452.282,-43.03639 c -2.3596,7.80306 -9.2468,13.37168 -17.3702,14.04506 -70.8569,5.21106 -161.9141,-11.01768 -188.2502,-38.09942 -19.7919,-20.3536 -18.5896,-59.55727 -7.3328,-47.11614 42.6574,47.14434 147.3536,60.5679 204.3504,59.87648 2.8075,-0.0677 5.4784,1.21478 7.1805,3.44922 1.702,2.23444 2.2288,5.15016 1.4178,7.83916 0.01,10e-4 0.01,10e-4 0,0.006 z m 456.1643,4.74635 c -1.3219,-4.07523 -0.697,-8.5317 1.6931,-12.08696 2.3912,-3.55412 6.2826,-5.81338 10.5552,-6.12695 57.8834,-4.65724 121.6321,-27.17874 150.2692,-59.03277 11.2162,-12.47723 12.5449,26.72305 -7.1827,47.13869 -21.0958,21.83345 -81.8577,36.78763 -142.3049,39.21946 -5.89,0.21656 -11.2083,-3.50224 -13.0265,-9.10921 0,0 0,-10e-4 0,-0.002 z"
             style="clip-rule:evenodd;display:inline;fill:#ffdc00;fill-opacity:1;fill-rule:evenodd;stroke-width:1.12793589;stroke-linejoin:round;stroke-miterlimit:1.41420996"
             id="path4534" />
          <path
             style="fill:#fc60a8;stroke-width:0.6010344"
             inkscape:connector-curvature="0"
             d="m 1452.8154,796.62026 120.102,-23.30605 -3.5732,-18.41626 -100.0527,19.44556 176.0903,-238.08611 10.7514,101.39702 18.6552,-1.97593 -12.9306,-121.6979 0.036,-0.0479 -43.8287,-32.41602 c -19.8123,-14.65331 -50.0694,-7.50296 -67.4032,15.93356 l -33.0594,44.69852 c -17.3338,23.43655 -15.3112,54.46113 4.5011,69.11447 l 28.8003,21.30096 -17.1551,23.19491 -28.8002,-21.30094 c -19.8125,-14.65337 -50.0695,-7.50299 -67.4034,15.93353 l -33.0592,44.69854 c -17.3339,23.43656 -15.3114,54.46111 4.501,69.11449 z"
             id="path4520" />
          <path
             style="fill:#ffdc00;fill-opacity:1;stroke:none;stroke-width:1px;stroke-linecap:butt;stroke-linejoin:miter;stroke-opacity:1"
             d="m 1646.5294,634.77161 31.8198,-45.07806 7.2478,38.36054 -7.6013,17.67767 -30.5824,-3.53553 z"
             id="path4573"
             inkscape:connector-curvature="0" />
          <path
             style="fill:#ffdc00;fill-opacity:1;stroke:none;stroke-width:1px;stroke-linecap:butt;stroke-linejoin:miter;stroke-opacity:1"
             d="m 1653.2469,598.35561 c 0,0 14.183,-31.83638 15.9541,-41.85189 0.5048,-2.88543 -1.4252,-6.28098 -1.5468,-6.93848 -7.7975,-12.24855 -15.55,-14.86084 -20.3834,-16.30497 -2.5365,3.634 -2.1126,2.97676 -2.6776,4.30484 -1.8727,4.40191 0.8755,13.06079 0.8755,13.06079 l 6.4524,51.00008 z"
             id="path4575"
             inkscape:connector-curvature="0"
             sodipodi:nodetypes="ccccsccc" />
          <path
             inkscape:connector-curvature="0"
             id="path4547"
             d="m 1555.6724,752.99139 -7.6061,25.31905 29.6748,-1.62349 24.9706,-46.4064 -19.5979,-14.38118 z"
             style="fill:#ffdc00;fill-opacity:1;stroke:none;stroke-width:1.12793589px;stroke-linecap:butt;stroke-linejoin:miter;stroke-opacity:1"
             sodipodi:nodetypes="cccccc" />
        </g>
      </g>
    </g>
  </g>
</svg>
